<?xml version="1.0" encoding="utf-8"?>
<!-- Generator: Adobe Illustrator 22.1.0, SVG Export Plug-In . SVG Version: 6.00 Build 0)  -->
<svg version="1.1" id="_x2014_ÎÓÈ_1" xmlns="http://www.w3.org/2000/svg" xmlns:xlink="http://www.w3.org/1999/xlink" x="0px"
	 y="0px" viewBox="0 0 422.2 528.8" style="enable-background:new 0 0 422.2 528.8;" xml:space="preserve">
<style type="text/css">
	.st0{fill-rule:evenodd;clip-rule:evenodd;}
</style>
<path class="st0" d="M416.7,411.3c0,0,3.2,44.4-29.8,81.9s-83.9,36-164.8,35.5c-80.9-0.5-102.2-75.5-91.8-90.8
	c10.4-15.3,15.8-5.9,28.1,28.6c12.3,34.5,67.6,41.9,144.1,34.1c76.5-7.9,77-48.4,77-48.4s-26.6,1.5-25.7,7.4s-9.4,9.9-35,9.9
	s-104.1,2.5-109.6,2.5c-5.4,0-14.8-6.4-14.8-6.4s-0.5,0-2-3.9c-1.5-3.9,8.9-11.4,13.3-16.3c4.4-4.9,23.7-2,29.1-3
	c5.4-1-9.4-15.8-13.3-26.6c-3.9-10.9,1-20.2,1-20.2s-7.4-7.4-18.8-18.3c-11.4-10.9-27.1-20.2-27.1-20.2s-9.4,3.5-20.2,18.3
	c-10.9,14.8-21.2,36.5-35.5,62.2C106.6,463,78,465,67.6,466.5c-10.4,1.5-16.8-3.5-16.8-3.5s-4.4-0.5-7.4-4.9c-3-4.4-0.5-11.4,3-15.8
	c3.5-4.4,11.8-8.9,15.3-8.4c3.5,0.5,5.9,2.5,9.9-3.9c3.9-6.4,23.7-44.9,27.6-75c3.9-30.1-9.4-57.5-24-90
	c-14.6-32.4-0.1-53.6-0.6-63.5c0,0,1.6-16.2-3.1-28.2c-4.7-12-19.3-3.7-29.1-0.3c-9.8,3.4-17.2,3.8-20.6,1.8c-3.4-2-3.7-7-3.7-7
	s-2.7-0.3-7.8-3.1C5,161.9,5,153.2,5,153.2c-3-1-2.6-0.8-5-3c0,0-0.2-0.3,0.2-3.1c0.3-2.8-0.2-9.9,5.1-20.6c5.3-10.7,1.8-29,1.8-29
	s2.3-9.4,13.6-24.4c11.4-15.1,26.5-24.8,26.5-24.8s-3.8-19.1-4.1-30.5C42.8,6.4,39.4-5,46.4,0.4c6.9,5.4,25.7,22.9,39.1,32
	c13.4,9.1,16.3,18.8,16.3,18.8s18.9,4.8,39.9,29.7c21,24.9,23,38.9,29.9,45.8c6.9,6.9,17.8,5.7,25.6,19.4
	c7.8,13.6,25.8,22.9,51.1,20.9c25.3-1.9,75-8.3,121.7,55c46.7,63.3,53.1,103.7,52.1,146.5C421.1,411.3,416.7,411.3,416.7,411.3z"/>
</svg>
